<?xml version="1.0" standalone="no"?>
<!DOCTYPE svg PUBLIC "-//W3C//DTD SVG 20010904//EN"
 "http://www.w3.org/TR/2001/REC-SVG-20010904/DTD/svg10.dtd">
<svg version="1.0" xmlns="http://www.w3.org/2000/svg"
 width="500.000000pt" height="500.000000pt" viewBox="0 0 500.000000 500.000000"
 preserveAspectRatio="xMidYMid meet">

<g transform="translate(0.000000,500.000000) scale(0.100000,-0.100000)"
fill="#000000" stroke="none">
<path d="M1575 2711 c-97 -24 -147 -87 -153 -191 -4 -71 9 -111 52 -158 92
-102 289 -72 335 51 l11 27 -51 0 c-40 0 -58 -6 -81 -25 -52 -44 -126 -28
-157 32 -25 50 -4 140 38 163 37 19 96 12 121 -15 19 -21 33 -25 76 -25 l54 0
-11 28 c-12 33 -55 79 -89 97 -33 17 -108 25 -145 16z"/>
<path d="M3790 2670 c0 -33 -3 -40 -20 -40 -17 0 -20 -7 -20 -45 0 -38 3 -45
20 -45 18 0 20 -7 20 -80 0 -43 5 -91 12 -105 16 -35 57 -55 113 -55 l45 0 0
39 c0 36 -2 39 -35 45 l-35 7 0 74 0 74 33 3 c30 3 32 5 32 43 0 38 -2 40 -32
43 -31 3 -33 6 -33 43 l0 39 -50 0 -50 0 0 -40z"/>
<path d="M1181 2652 c-1 -31 -30 -40 -48 -16 -14 18 -15 19 -11 0 1 -10 11
-24 20 -30 24 -15 51 13 45 45 -4 24 -4 24 -6 1z"/>
<path d="M990 2643 c0 -16 -6 -23 -20 -23 -11 0 -20 7 -20 15 0 8 -4 15 -10
15 -14 0 -13 -23 2 -38 29 -29 79 5 57 39 -7 11 -9 9 -9 -8z"/>
<path d="M1954 2616 c-90 -41 -121 -180 -57 -256 36 -43 74 -60 133 -60 71 0
115 23 147 77 21 37 25 53 21 99 -5 58 -24 93 -71 128 -34 25 -129 32 -173 12z
m130 -98 c35 -49 2 -138 -51 -138 -51 0 -84 61 -63 116 14 35 26 44 67 44 22
0 37 -7 47 -22z"/>
<path d="M2257 2623 c-4 -3 -7 -78 -7 -165 l0 -158 49 0 49 0 4 106 c3 98 5
107 27 126 17 13 33 17 50 13 44 -10 51 -31 51 -142 l0 -103 50 0 50 0 0 110
c0 158 -26 207 -114 217 -34 4 -54 0 -81 -15 -34 -21 -35 -21 -35 -2 0 17 -7
20 -43 20 -24 0 -47 -3 -50 -7z"/>
<path d="M2622 2618 c3 -7 29 -82 58 -165 l54 -153 62 0 61 0 57 158 c31 87
56 161 56 165 0 5 -23 7 -52 5 -45 -3 -52 -6 -59 -28 -4 -14 -20 -65 -35 -115
l-28 -89 -36 114 -36 115 -53 3 c-41 2 -52 0 -49 -10z"/>
<path d="M3082 2613 c-51 -25 -76 -68 -80 -138 -4 -72 16 -119 67 -152 40 -27
126 -31 171 -8 32 16 70 61 70 81 0 20 -93 19 -110 -1 -26 -31 -100 -9 -100
31 0 11 21 14 110 14 l110 0 0 44 c0 111 -131 182 -238 129z m122 -79 c27 -27
18 -34 -44 -34 -33 0 -60 3 -60 7 0 3 7 15 17 25 20 22 66 24 87 2z"/>
<path d="M3380 2465 l0 -165 50 0 50 0 0 101 c0 55 4 109 10 119 14 26 57 34
86 15 23 -15 24 -20 24 -125 l0 -110 50 0 50 0 0 120 c0 137 -10 169 -62 196
-39 20 -110 14 -138 -11 -19 -17 -20 -17 -20 3 0 20 -5 22 -50 22 l-50 0 0
-165z"/>
<path d="M4010 2515 c0 -133 13 -175 59 -199 38 -20 94 -20 131 -1 27 14 30
14 30 0 0 -11 12 -15 50 -15 l50 0 0 166 0 165 -47 -3 -48 -3 -3 -105 c-2 -79
-7 -109 -19 -122 -20 -22 -51 -23 -81 -2 -20 14 -22 23 -22 125 l0 109 -50 0
-50 0 0 -115z"/>
<path d="M4464 2620 c-31 -12 -64 -59 -64 -90 0 -46 33 -76 105 -95 72 -20 83
-28 65 -50 -18 -21 -58 -18 -72 5 -10 15 -24 20 -60 20 -53 0 -57 -7 -31 -51
23 -38 69 -59 133 -59 84 0 130 34 130 97 0 54 -30 78 -127 103 -48 12 -60 25
-43 45 17 21 47 19 67 -5 19 -22 103 -29 103 -9 0 24 -36 70 -66 84 -35 16
-106 19 -140 5z"/>
<path d="M1054 2493 c-3 -13 -14 -23 -25 -23 -24 0 -34 -19 -14 -26 12 -5 15
-14 11 -30 -7 -25 3 -31 21 -13 8 8 18 6 35 -5 24 -16 24 -16 20 13 -2 16 1
32 7 35 18 11 13 26 -9 26 -12 0 -25 10 -30 23 l-9 22 -7 -22z"/>
</g>
</svg>
